HIERARCHY
ROOT Hips
{
  OFFSET 0 0 0
  CHANNELS 6 Xposition Yposition Zposition Zrotation Yrotation Xrotation
  JOINT LeftThigh
  {
    OFFSET 8.409438 0 -5.917753
    CHANNELS 3 Zrotation Yrotation Xrotation
    JOINT LeftLeg
    {
      OFFSET 0 0 -42.358652
      CHANNELS 3 Zrotation Yrotation Xrotation
      JOINT LeftFoot
      {
        OFFSET 0 0 -39.357303
        CHANNELS 3 Zrotation Yrotation Xrotation
      }
    }
  }
  JOINT RightThigh
  {
    OFFSET -8.409438 0 -5.917753
    CHANNELS 3 Zrotation Yrotation Xrotation
    JOINT RightLeg
    {
      OFFSET 0 0 -42.358652
      CHANNELS 3 Zrotation Yrotation Xrotation
      JOINT RightFoot
      {
        OFFSET 0 0 -39.357303
        CHANNELS 3 Zrotation Yrotation Xrotation
      }
    }
  }
  JOINT SpineLow
  {
    OFFSET 0 0 4.719101
    CHANNELS 3 Zrotation Yrotation Xrotation
    JOINT SpineMid
    {
      OFFSET 0 0 12.899191
      CHANNELS 3 Zrotation Yrotation Xrotation
      JOINT Chest
      {
        OFFSET 0 0 12.899191
        CHANNELS 3 Zrotation Yrotation Xrotation
        JOINT LeftShoulder
        {
          OFFSET 7.550562 1.41573 9.438202
          CHANNELS 3 Zrotation Yrotation Xrotation
          JOINT LeftArm
          {
            OFFSET 9.155056 0 4.247191
            CHANNELS 3 Zrotation Yrotation Xrotation
            JOINT LeftForearm
            {
              OFFSET 0 0 25.771955
              CHANNELS 3 Zrotation Yrotation Xrotation
              JOINT LeftHand
              {
                OFFSET 0 0 25.197169
                CHANNELS 3 Zrotation Yrotation Xrotation
              }
            }
          }
        }
        JOINT RightShoulder
        {
          OFFSET -7.550562 1.41573 9.438202
          CHANNELS 3 Zrotation Yrotation Xrotation
          JOINT RightArm
          {
            OFFSET -9.155056 0 4.247191
            CHANNELS 3 Zrotation Yrotation Xrotation
            JOINT RightForearm
            {
              OFFSET 0 0 -25.771955
              CHANNELS 3 Zrotation Yrotation Xrotation
              JOINT RightHand
              {
                OFFSET 0 0 -25.197169
                CHANNELS 3 Zrotation Yrotation Xrotation
              }
            }
          }
        }
        JOINT Neck
        {
          OFFSET 0 0 15.101124
          CHANNELS 3 Zrotation Yrotation Xrotation
          JOINT Head
          {
            OFFSET 0 0 11.325843
            CHANNELS 3 Zrotation Yrotation Xrotation
            End Site
            {
              OFFSET 0 0 14.157303
            }
          }
        }
      }
    }
  }
}
MOTION
Frames: 18
Frame Time: 0.0
0.0  89.887642  0.0  -1.293973  -30.228399  -95.08409  14.845687  -20.227719  1.238335  -2.912217  4.972996  21.320613  2.889428  2.014642  2.222082  -3.654964  6.347474  -14.165677  -13.131395  8.85961  18.42312  10.01386  2.678645  -0.020363  -0.190141  -0.28679  0.96699  -0.531124  -0.77616  2.645517  -0.531124  -0.77616  2.645517  -21.081432  12.756536  -6.27778  159.676686  32.728761  -156.427298  -60.935475  25.000904  77.163018  75.840505  0.134808  -16.009722  0.415432  -7.291771  14.984589  124.519738  43.738709  54.244912  21.540066  15.03729  -8.08371  107.21418  3.155074  5.166463  2.028208  1.618582  0.568157  1.519552  1.215839  0.420723  
0.0  89.887642  0.0  -0.98865  -34.085555  -95.174979  16.433231  -19.867738  2.264636  -1.925709  4.671643  21.108362  3.260497  2.051172  2.327323  -2.442849  6.251444  -14.65216  -12.632591  8.512317  18.043846  10.485187  2.341903  -0.075575  -0.029526  -0.27433  0.879636  -0.090675  -0.748666  2.404827  -0.090675  -0.748666  2.404828  -21.751793  12.063845  -6.46427  160.312591  30.502644  -155.009067  -60.863411  30.089048  79.039164  76.009809  0.500585  -16.436744  0.737936  -7.750725  14.925258  127.527058  43.287127  54.43122  23.319521  15.535529  -6.697437  108.608065  2.437985  6.319907  3.65293  1.824631  1.091658  2.736216  1.375061  0.807799  
0.0  89.887642  0.0  -0.597701  -38.203031  -95.432851  17.7414  -19.380935  3.505882  -0.645051  4.376616  20.926974  3.632549  2.075931  2.426658  -1.295367  6.124827  -14.960771  -12.169111  8.226501  17.465945  11.370412  1.953252  -0.105951  0.201116  -0.224766  0.79741  0.542266  -0.620923  2.177812  0.542266  -0.620924  2.177812  -23.118128  11.389587  -6.48758  161.13816  28.467377  -153.68545  -59.5604  34.436658  80.832335  76.518528  0.555205  -17.071339  0.605141  -8.379024  14.80021  130.84269  42.659454  54.780705  24.052108  15.684183  -6.295081  109.387825  1.902147  7.061914  5.221486  1.826734  1.601376  3.911027  1.383862  1.18542  
0.0  89.887642  0.0  -0.212152  -42.385328  -95.716955  18.644822  -18.843917  4.713157  0.939367  4.166131  20.921886  4.104215  2.151734  2.610119  -0.241037  5.960121  -15.15103  -11.605881  7.84497  16.76354  12.062151  1.590195  -0.214354  0.413812  -0.14348  0.663715  1.127092  -0.403496  1.811703  1.127092  -0.403496  1.811703  -24.571138  10.875384  -5.932429  160.070731  27.35063  -153.308023  -58.7736  38.013153  82.352957  77.49084  1.071925  -16.926466  0.262039  -9.163354  14.900621  135.487247  41.68827  56.202836  22.921246  15.159698  -7.39022  109.295941  1.768199  7.291724  6.939029  1.590431  2.219375  5.198243  1.218227  1.646613  
0.0  89.887642  0.0  0.608592  -47.097627  -96.957363  19.446253  -18.26301  6.546136  2.628323  4.12287  21.053688  4.672617  2.250586  2.815192  1.485225  5.940239  -14.649314  -11.039169  7.424341  16.036328  12.660934  1.309654  -0.313044  0.706331  -0.057319  0.556518  1.929252  -0.172901  1.519367  1.929252  -0.172901  1.519367  -26.614699  10.624447  -5.43783  158.876812  26.496947  -153.352028  -54.963211  32.846967  83.318215  70.561437  0.577013  -16.381861  -0.217827  -9.745578  15.504761  139.646739  40.595085  57.525123  20.43749  14.413341  -9.582456  109.204917  1.752853  7.310415  8.656834  1.246946  3.058888  6.486322  0.978803  2.276951  
0.0  89.887642  0.0  1.712595  -50.929683  -98.265596  19.02691  -17.36237  8.113492  4.596999  4.197354  21.404807  5.270086  2.321484  3.043697  2.691129  6.025162  -14.233  -10.514403  7.05021  15.21211  13.068661  1.111825  -0.383616  0.894336  0.07776  0.416061  2.445839  0.197124  1.13996  2.445839  0.197124  1.13996  -29.155907  10.260093  -5.193475  157.470163  25.15763  -154.048522  -54.005657  27.091036  85.72081  64.598349  5.968864  -14.409693  -0.899433  -10.35676  16.220967  141.868461  38.578971  58.261342  15.808153  15.134369  -13.051458  109.36448  1.668605  7.189858  10.303953  0.729665  3.831046  7.723648  0.612085  2.861908  
0.0  89.887642  0.0  3.225187  -54.394107  -99.909537  18.155125  -16.167588  9.367891  6.769997  4.221382  22.091852  5.806253  2.399863  3.254016  4.073961  6.211196  -13.856381  -10.439115  6.856198  14.479169  13.352607  0.97069  -0.442784  1.029203  0.223802  0.22027  2.815307  0.602236  0.611499  2.815307  0.602236  0.611499  -31.456149  10.161737  -4.451794  155.610037  23.952125  -155.268156  -47.849528  24.079793  92.911717  61.547406  4.958984  -17.990013  -1.704855  -10.499687  17.224619  143.429015  34.924949  57.312944  10.698046  16.805385  -15.42101  107.498817  1.92626  8.501157  11.878646  0.11528  4.735812  8.908725  0.178624  3.551209  
0.0  89.887642  0.0  5.039037  -57.375203  -101.788528  17.07486  -14.581559  10.279705  9.036818  3.893731  22.955212  6.196779  2.464168  3.419822  5.331945  6.452653  -13.592689  -10.674705  6.786173  13.862147  13.59013  0.916082  -0.480448  0.958712  0.458015  0.274498  2.625989  1.240812  0.768417  2.625989  1.240812  0.768417  -32.799351  8.642566  -4.82524  155.024245  23.527687  -156.247919  -47.657493  23.520263  94.029684  61.600697  0.789895  -16.307195  -1.296798  -10.880557  16.52304  146.155482  34.100081  57.929136  7.978204  17.363341  -18.591733  105.232325  3.084  9.856799  14.046458  -0.411467  4.563734  10.538569  -0.203815  3.434399  
0.0  89.887642  0.0  6.975043  -59.926786  -103.633715  16.416169  -12.838778  10.890139  11.022402  3.245192  23.568435  6.463951  2.527839  3.590499  6.106388  6.711124  -13.601618  -10.923332  6.732834  13.398128  13.733481  0.948796  -0.544876  1.10688  0.760403  0.701706  3.048217  2.045663  1.952962  3.048217  2.045662  1.952962  -35.813328  5.311852  -7.129238  155.266938  23.014451  -156.722485  -48.479691  24.683411  95.278067  61.427555  -1.041469  -17.809271  -2.194711  -11.836578  13.315915  148.643074  35.31436  58.624781  7.596586  17.343255  -21.118943  104.020982  4.029757  11.295892  15.150948  -0.606351  2.866167  11.366243  -0.383973  2.166222  
0.0  89.887642  0.0  9.261071  -62.150959  -105.546278  16.863491  -11.213824  11.184946  11.993862  2.694403  23.820842  6.685762  2.556221  3.671232  6.412342  7.120825  -13.894392  -10.946691  6.641325  13.002392  14.117393  1.044372  -0.622237  0.868179  1.022533  0.964001  2.414715  2.759445  2.672765  2.414715  2.759445  2.672765  -35.574868  3.13868  -8.613406  156.371052  23.069921  -156.503626  -48.314382  27.943788  96.285106  61.217605  -1.999158  -22.426728  -0.716514  -12.409153  10.732442  148.747585  36.465442  57.62205  8.472717  18.659129  -22.73694  104.120064  3.659602  12.121586  17.609681  -0.475318  1.64808  13.20858  -0.309285  1.250989  
0.0  89.887642  0.0  10.128174  -62.407458  -105.702382  16.601594  -10.209101  10.891033  12.150713  2.448993  23.808604  6.749435  2.543745  3.762552  4.536047  7.429016  -14.679545  -10.480092  6.449184  12.569747  14.409957  1.076967  -0.68093  0.405805  1.176555  1.015876  1.159284  3.198179  2.798473  1.159284  3.198179  2.798473  -35.16386  1.996614  -9.477844  157.793612  23.290447  -155.618698  -49.627817  31.686197  94.886388  61.706198  -2.493407  -26.023345  0.341187  -12.765805  8.782242  146.717308  36.898442  55.20325  7.838202  20.282486  -22.002699  107.028295  4.720355  12.229989  19.648705  -0.249777  0.994663  14.736958  -0.155526  0.754958  
0.0  89.887642  0.0  12.60179  -63.403655  -107.788027  17.989109  -9.312748  11.254526  11.78057  2.453455  23.567463  6.661167  2.549826  3.840967  3.854436  8.227966  -14.873826  -9.67661  6.166181  12.171928  14.674759  1.086707  -0.721631  0.286971  1.42712  1.089983  0.849499  3.886966  2.999451  0.849499  3.886966  2.999451  -35.271043  1.135621  -9.905813  158.166747  23.588361  -154.622455  -52.207956  34.076843  92.741528  62.947745  -2.531434  -28.140877  0.639626  -13.335104  6.969707  144.210638  37.322792  53.191435  8.47931  21.766366  -23.380648  108.426553  3.095804  10.908762  20.896104  -0.248752  0.526455  15.672283  -0.168786  0.403912  
0.0  89.887642  0.0  14.205915  -63.659021  -109.44339  18.686777  -8.770262  11.738067  11.65758  2.279081  23.754546  6.300603  2.709345  3.655769  2.823893  8.92606  -14.663809  -8.89495  5.836569  11.825068  14.639832  1.077522  -0.761467  0.336263  1.575942  1.042184  0.988209  4.292151  2.874307  0.988209  4.292151  2.874307  -36.379614  1.455894  -9.491111  157.287401  23.87771  -153.874976  -55.148222  35.064853  91.120425  64.897695  -1.762537  -28.981156  -0.573035  -13.383588  6.578172  141.549421  37.73051  51.870738  7.859709  22.197969  -25.490297  110.100881  1.098083  9.337415  21.006266  -0.496333  0.835782  15.755314  -0.343986  0.644809  
0.0  89.887642  0.0  14.92051  -63.104414  -110.349877  18.603344  -8.323618  11.939877  11.44492  2.15359  23.960813  6.06847  2.803311  3.619964  1.499457  9.611962  -14.280446  -8.386759  5.54085  11.500507  14.71723  1.153571  -0.774662  0.25864  1.656307  0.755242  0.759768  4.518689  2.085085  0.759768  4.518689  2.085085  -36.547409  3.213083  -7.992909  155.434477  24.350852  -153.552865  -57.653083  35.414677  91.073715  67.088632  0.022623  -29.89613  -1.62964  -12.970448  8.019831  138.269654  38.109545  50.406053  6.890532  22.251565  -27.651295  111.303135  -0.81221  8.068221  21.067863  -1.108962  2.090835  15.804411  -0.760681  1.608607  
0.0  89.887642  0.0  14.923105  -61.709752  -110.435324  18.105759  -8.065932  11.70319  11.08762  2.206065  24.36151  6.537872  3.003084  4.249808  -0.064747  10.370903  -13.887435  -8.260003  5.302994  11.148411  14.654798  1.252447  -0.809288  0.081503  1.738894  0.451141  0.255661  4.751372  1.240986  0.255661  4.751372  1.240986  -36.068233  5.176232  -6.363622  153.184967  25.131501  -153.353818  -59.440273  34.770194  91.088152  68.3611  1.584731  -30.799315  -2.444798  -12.478862  9.582431  133.809265  38.399001  47.690772  6.44683  22.451496  -29.029018  111.487995  -2.363812  7.42352  20.956641  -1.773803  3.388438  15.726619  -1.215832  2.605646  
0.0  89.887642  0.0  14.427069  -59.543109  -109.861924  17.422453  -7.975437  11.089866  10.468602  2.382373  24.908081  6.197083  2.964773  4.232982  -1.705473  11.226198  -13.523368  -8.415783  5.132952  10.823321  14.737189  1.369282  -0.802227  0.059595  1.918881  0.284377  0.185859  5.244281  0.783568  0.185859  5.244281  0.783568  -36.639038  6.232584  -4.964308  150.848434  26.285452  -153.257248  -60.432313  33.242518  90.920617  68.822931  2.837056  -31.335838  -4.161173  -12.726188  10.248946  128.419422  38.002374  44.257748  6.101894  22.879807  -29.903706  110.583631  -3.399723  7.194181  19.771457  -2.5892  4.095819  14.844193  -1.811686  3.159127  
0.0  89.887642  0.0  13.646908  -56.754427  -108.803964  16.694073  -8.006432  10.142787  9.665372  2.622629  25.518482  5.688696  2.911226  4.168539  -3.258806  12.115489  -13.291194  -8.7767  5.077503  10.641727  14.702201  1.456678  -0.835527  -0.02177  2.090122  0.219749  -0.040568  5.713284  0.600156  -0.040568  5.713284  0.600156  -36.748106  6.875895  -4.244941  148.369795  27.669749  -153.328463  -60.48202  31.073869  91.06228  69.041804  4.410195  -31.214176  -5.337023  -13.048906  10.216829  122.56961  36.841917  41.408677  5.115937  23.511838  -31.40564  109.194731  -4.01316  6.962832  18.487701  -3.159039  4.403453  13.885863  -2.238608  3.40114  
0.0  89.887642  0.0  12.5691  -53.373974  -107.292702  15.875628  -8.334496  8.792454  8.56118  3.078818  26.186971  5.215821  2.861051  4.085716  -4.82889  12.918917  -13.234149  -9.307187  5.090484  10.700021  14.659513  1.564401  -0.859753  -0.290695  2.15617  0.238042  -0.775203  5.896382  0.626211  -0.775203  5.896382  0.626211  -35.617454  7.44403  -4.524576  145.753907  29.122271  -153.721626  -59.147611  29.44328  91.525492  69.872403  6.140778  -30.541613  -5.377873  -12.733745  9.563125  114.024231  35.556247  38.565503  4.592476  24.906286  -34.84169  108.19347  -4.759307  6.185386  17.588914  -3.215656  4.417522  13.212271  -2.286971  3.408292  
